<svg version="1" xmlns="http://www.w3.org/2000/svg" width="346.667" height="346.667" viewBox="0 0 260.000000 260.000000"><path d="M125.7 1.6c-.1.1-4 .4-8.6.7-4.6.4-8.6.9-9 1.2-.6.7 6.3 21.4 17 51l6.9 18.9-5.4 5.5-5.4 5.4-16.5-16.9c-9.1-9.3-21.2-21.7-26.9-27.6L67.4 29l-4.9 5c-2.7 2.7-4.5 5.3-4.1 5.7.4.5 11.9 12.2 25.4 26.2 13.6 14 25.3 26 26.1 26.8 1.4 1.4 1.1 1.6-14.6 16.5l-2.2 2.1L77.3 95c-8.7-8.9-20.6-21.2-26.5-27.3-9.7-10.1-10.8-10.9-12.4-9.6-3.6 2.8-7.3 6.5-7.6 7.6C30.6 66.2 42 78.5 56 93c14 14.4 25.8 26.7 26.2 27.4.9 1.4-8 10.6-10.3 10.6-1.4 0-6.3-1.8-13.4-5-1.1-.5-6.9-2.9-13-5.3-6-2.5-17.7-7.3-25.8-10.7-8.5-3.6-15.2-5.9-15.7-5.4-2.7 2.8-3.6 34.5-1.4 46.9 4.8 26.8 16.7 49.8 35.8 68.9 11 11 20.6 18 33.1 24.4 7.5 3.8 23.3 9.6 29.4 10.7 1.4.3 3.7.7 5.1 1 6.6 1.3 15.6 1.9 26.5 1.8 26.2-.3 51.4-8.8 72.8-24.5 3.7-2.8 6.7-5.3 6.7-5.6 0-.4-5.9-3-13-5.9l-13-5.1-8.4 4.4c-15.7 8.1-30.2 11.6-47.6 11.7-11.9 0-15-.3-25.8-2.8-38-8.8-69.9-43.1-76.7-82.2L27 145l4.7 1.9c2.7 1 11.8 4.6 20.3 7.9 8.5 3.4 32.8 12.9 54 21.2 21.2 8.3 48.2 18.9 60 23.5 11.8 4.6 27.1 10.6 34 13.3 6.9 2.8 12.7 4.8 12.8 4.7.2-.2-4.4-14-10.3-30.7s-13.1-37.1-16-45.3c-14.1-40.3-31.7-90.2-32.5-92-1.5-3.7-7-19.6-7-20.5 0-1.2 5-.2 13.9 2.6 36.8 12 63.8 43 70.5 81 1.5 8.4 1.8 28.9.5 33.9-.5 1.6-1 4.1-1.3 5.5-1.5 8.9-6.6 21.5-12.8 31.9l-3.9 6.5 4.7 13.3c4.2 12 4.8 13.2 6.5 12.2 1.1-.5 1.9-1.3 1.9-1.7 0-.4 1.1-1.9 2.4-3.3 6.7-7.2 16.6-24.6 20.9-36.9 5.5-15.4 7.2-25.8 7.2-44 0-18.6-1.5-27.7-7.1-43.4-11.9-33.3-38.3-61.2-71.1-75-7.6-3.2-21.7-7.3-27.5-8-9.9-1.3-25.4-2.5-26.1-2zm25 130.7c6.2 17.1 11.1 31.2 11 31.3-.1.1-14.3-5.5-31.5-12.4l-31.4-12.7 19.8-19.2c10.8-10.6 20-19 20.3-18.7.3.3 5.6 14.5 11.8 31.7z"/></svg>