<svg xmlns="http://www.w3.org/2000/svg" width="300" height="300" viewBox="0 0 300 300"><path fill="#F35E17" d="M254.537 47.466C219.615 11.799 170.89-2.154 125.162 5.768l8.32 23.601-.199.195 20.018 55.74L140.64 97.7 79.671 34.918 68.735 45.722l60.921 62.731-20.595 20.165-60.832-62.641-10.936 10.802 60.783 62.591-12.578 12.315-51.594-21.097c.013-.077.022-.155.035-.232-8.788-3.626-17.881-7.378-26.576-10.961-9.715 46.145 3.059 96.13 38.525 132.352 54.001 55.156 141.009 58.408 198.891 9.105l-30.817-12.089C167.905 278.44 105.829 272.739 66 232.06c-18.251-18.64-29.044-41.797-32.45-65.784l211.916 83.131L169.236 33.3c23.949 3.897 46.912 15.188 65.19 33.856 40.552 41.417 44.364 105.123 11.869 150.735l10.943 31.024c52.742-56.745 52.07-145.508-2.701-201.449zM115.121 159.227l45.824-44.866 26.772 74.256-72.596-29.39z"/></svg>