<svg xmlns="http://www.w3.org/2000/svg" width="300" height="300" viewBox="0 0 300 300"><path fill="#CAB68E" stroke="#1D1D1B" stroke-width="2" stroke-miterlimit="10" d="M118.279 132.072l32.68 71.486 31.673-72.609-64.353 1.123zm59.596-97.915l1.232 70.644 17.983-.314 22.446-51.284a117.796 117.796 0 0 0-41.661-19.046zm-44.384-1.964l1.28 73.383 28.915-.504-1.283-73.506a119.562 119.562 0 0 0-13.965-.571c-5.068.087-10.057.494-14.947 1.198zm-14.14 73.653l-1.229-70.382a117.793 117.793 0 0 0-39.324 19.717l23.082 50.969 17.471-.304zM40.732 52.199L25.506 18.237l43.033 9.542C91.241 12.43 118.504 3.266 147.945 2.752c30.635-.535 59.237 8.372 83.03 24.037l40.019-8.874-13.839 30.867c24.142 25.611 39.185 59.949 39.848 97.912 1.372 78.557-59.337 143.749-136.922 148.769l13.41-30.169c55.145-10.856 96.286-59.944 95.271-118.107-.458-26.215-9.411-50.29-24.19-69.645l-22.539 50.708c12.187 3.747 20.847 15.3 20.38 28.651-.558 15.962-13.947 28.449-29.909 27.892a28.818 28.818 0 0 1-13.802-4.055l-47.545 106.965-50.432-107.24a28.791 28.791 0 0 1-16.664 4.583c-15.962-.558-28.449-13.949-27.893-29.91.438-12.561 8.822-22.969 20.154-26.564L53.93 80.953c-14.059 19.844-22.142 44.184-21.685 70.364.998 57.126 42.333 104.082 96.381 114.194l14.138 30.064c-76.2-3.954-137.408-66.314-138.76-143.766-.665-38.138 13.301-73.127 36.728-99.61z"/></svg>