<?xml version="1.0" encoding="utf-8"?>
<!-- Generator: Adobe Illustrator 15.1.0, SVG Export Plug-In . SVG Version: 6.00 Build 0)  -->
<!DOCTYPE svg PUBLIC "-//W3C//DTD SVG 1.1//EN" "http://www.w3.org/Graphics/SVG/1.1/DTD/svg11.dtd">
<svg version="1.1" id="Capa_1" xmlns="http://www.w3.org/2000/svg" xmlns:xlink="http://www.w3.org/1999/xlink" x="0px" y="0px"
	 width="300px" height="300px" viewBox="0 0 300 300" enable-background="new 0 0 300 300" xml:space="preserve">
<path fill="#CAB68E" stroke="#1D1D1B" stroke-width="2" stroke-miterlimit="10" d="M118.279,132.072l32.68,71.486l31.673-72.609
	L118.279,132.072z M177.875,34.157l1.232,70.644l17.983-0.314l22.446-51.284C207.204,44.324,193.1,37.767,177.875,34.157z
	 M133.491,32.193l1.28,73.383l28.915-0.504l-1.283-73.506c-4.585-0.458-9.245-0.653-13.965-0.571
	C143.37,31.082,138.381,31.489,133.491,32.193z M119.351,105.846l-1.229-70.382c-14.433,4.098-27.727,10.861-39.324,19.717
	l23.082,50.969L119.351,105.846z M40.732,52.199L25.506,18.237l43.033,9.542c22.702-15.349,49.965-24.513,79.406-25.027
	c30.635-0.535,59.237,8.372,83.03,24.037l40.019-8.874l-13.839,30.867c24.142,25.611,39.185,59.949,39.848,97.912
	c1.372,78.557-59.337,143.749-136.922,148.769l13.41-30.169c55.145-10.856,96.286-59.944,95.271-118.107
	c-0.458-26.215-9.411-50.29-24.19-69.645l-22.539,50.708c12.187,3.747,20.847,15.3,20.38,28.651
	c-0.558,15.962-13.947,28.449-29.909,27.892c-5.05-0.177-9.75-1.637-13.802-4.055l-47.545,106.965l-50.432-107.24
	c-4.789,3.089-10.537,4.796-16.664,4.583c-15.962-0.558-28.449-13.949-27.893-29.91c0.438-12.561,8.822-22.969,20.154-26.564
	L53.93,80.953c-14.059,19.844-22.142,44.184-21.685,70.364c0.998,57.126,42.333,104.082,96.381,114.194l14.138,30.064
	c-76.2-3.954-137.408-66.314-138.76-143.766C3.339,113.671,17.305,78.682,40.732,52.199z"/>
</svg>
